<?xml version="1.0" encoding="UTF-8"?>
<svg id="Layer_1" xmlns="http://www.w3.org/2000/svg" version="1.1" viewBox="0 0 147.1 118">
  <!-- Generator: Adobe Illustrator 29.7.1, SVG Export Plug-In . SVG Version: 2.1.1 Build 8)  -->
  <defs>
    <style>
      .st0 {
        fill: #fff;
      }

      .st1 {
        fill: #5d02f9;
      }
    </style>
  </defs>
  <rect class="st1" y="14.2" width="73.5" height="103.8"/>
  <g>
    <path class="st0" d="M71.5,114.1c-17.5-11.2-44.2-12.5-55.4-12.5s-2.2,0-3,0V2h3c11.3,0,39,1.3,55.4,13.3,0,0,0,98.8,0,98.8Z"/>
    <path class="st1" d="M16.1,4c10.9,0,37.4,1.2,53.4,12.3v94.3c-17.8-9.8-42.7-11-53.4-11s-.7,0-1,0V4h1M11.1,0h0ZM16.1,0h-5v103.7h5c11.6,0,40.6,1.4,57.4,14.3V14.3C56.8,1.4,27.7,0,16.1,0h0Z"/>
  </g>
  <rect class="st1" x="73.6" y="14.2" width="73.5" height="103.8"/>
  <g>
    <path class="st0" d="M75.5,15.3C91.9,3.3,119.7,2,131,2s2.2,0,3,0v99.7h-3c-11.2,0-37.9,1.3-55.4,12.5V15.3h0Z"/>
    <path class="st1" d="M131,4h1v95.7h-1c-10.7,0-35.6,1.2-53.4,11V16.3c16-11.1,42.5-12.3,53.4-12.3M135.9,0h-4.9C119.4,0,90.4,1.4,73.6,14.3v103.7c16.8-12.9,45.8-14.3,57.4-14.3h5V0h-.1Z"/>
  </g>
  <g>
    <path class="st1" d="M123.5,12.3v4c-10.3.5-25.1,2.2-37.6,7.4v-4.3c12.8-5,27.4-6.6,37.6-7.1Z"/>
    <path class="st1" d="M123.5,26.5v4c-10.3.5-25.1,2.2-37.6,7.4v-4.3c12.8-5,27.4-6.6,37.6-7.1Z"/>
    <path class="st1" d="M123.5,40.7v4.1c-10.2.5-25.1,2.2-37.6,7.4v-4.3c12.8-5,27.4-6.6,37.6-7.1h0Z"/>
    <path class="st1" d="M123.5,54.9v4c-10.3.5-25.1,2.2-37.6,7.4v-4.3c12.8-5,27.4-6.6,37.6-7.1Z"/>
    <path class="st1" d="M110.3,70.3v4.1c-7.9,1.1-16.6,2.9-24.3,6.2v-4.3c7.9-3.1,16.5-4.9,24.3-5.9h0Z"/>
  </g>
  <g>
    <path class="st1" d="M61.1,19.4v4.3c-12.5-5.2-27.3-6.9-37.6-7.4v-4c10.2.5,24.8,2.1,37.6,7.1Z"/>
    <path class="st1" d="M61.1,33.6v4.3c-12.5-5.2-27.3-6.9-37.6-7.4v-4c10.2.5,24.8,2.1,37.6,7.1Z"/>
    <path class="st1" d="M23.5,40.8c10.2.5,24.8,2.1,37.6,7.1v4.3c-12.5-5.2-27.4-6.9-37.6-7.4v-4.1s0,.1,0,.1Z"/>
    <path class="st1" d="M61.1,62v4.3c-12.5-5.2-27.3-6.9-37.6-7.4v-4c10.2.5,24.8,2.1,37.6,7.1Z"/>
    <path class="st1" d="M48.3,72.4v4.1c-8.9-2.1-17.9-3-24.8-3.3v-4c6.9.3,15.8,1.2,24.8,3.2Z"/>
  </g>
</svg>