<?xml version="1.0" encoding="UTF-8"?>
<svg id="Layer_1" xmlns="http://www.w3.org/2000/svg" version="1.1" viewBox="0 0 89.6 146.9">
  <!-- Generator: Adobe Illustrator 29.7.1, SVG Export Plug-In . SVG Version: 2.1.1 Build 8)  -->
  <defs>
    <style>
      .st0 {
        fill: #fff;
      }

      .st1 {
        fill: #5d02f9;
      }
    </style>
  </defs>
  <g>
    <polygon class="st1" points="86.2 134.5 44.8 146.9 44.8 16.9 86.2 26.4 86.2 134.5"/>
    <polygon class="st0" points="69.4 39 65.4 38.3 65.4 27.6 69.4 28.4 69.4 39"/>
    <polygon class="st0" points="63 38 58.8 37.3 58.8 26.3 63 27.1 63 38"/>
    <polygon class="st0" points="75.4 39.9 71.6 39.3 71.6 28.9 75.4 29.7 75.4 39.9"/>
    <polygon class="st0" points="81.1 40.8 77.5 40.2 77.5 30.1 81.1 30.8 81.1 40.8"/>
    <polygon class="st0" points="56.3 36.9 51.8 36.2 51.8 24.8 56.3 25.8 56.3 36.9"/>
    <polygon class="st0" points="69.4 54.3 65.4 54 65.4 43.3 69.4 43.8 69.4 54.3"/>
    <polygon class="st0" points="63 53.8 58.8 53.4 58.8 42.4 63 42.9 63 53.8"/>
    <polygon class="st0" points="75.4 54.9 71.6 54.5 71.6 44.1 75.4 44.6 75.4 54.9"/>
    <polygon class="st0" points="81.1 55.3 77.5 55 77.5 44.9 81.1 45.4 81.1 55.3"/>
    <polygon class="st0" points="56.3 53.2 51.8 52.8 51.8 41.4 56.3 42 56.3 53.2"/>
    <polygon class="st0" points="69.4 69.7 65.4 69.6 65.4 58.9 69.4 59.2 69.4 69.7"/>
    <polygon class="st0" points="63 69.6 58.8 69.5 58.8 58.5 63 58.7 63 69.6"/>
    <polygon class="st0" points="75.4 69.8 71.6 69.7 71.6 59.3 75.4 59.5 75.4 69.8"/>
    <polygon class="st0" points="81.1 69.9 77.5 69.8 77.5 59.7 81.1 59.9 81.1 69.9"/>
    <polygon class="st0" points="56.3 69.5 51.8 69.4 51.8 58 56.3 58.3 56.3 69.5"/>
    <polygon class="st0" points="69.4 85 65.4 85.3 65.4 74.5 69.4 74.5 69.4 85"/>
    <polygon class="st0" points="63 85.4 58.8 85.6 58.8 74.6 63 74.5 63 85.4"/>
    <polygon class="st0" points="75.4 84.7 71.6 84.9 71.6 74.5 75.4 74.5 75.4 84.7"/>
    <polygon class="st0" points="81.1 84.4 77.5 84.6 77.5 74.5 81.1 74.5 81.1 84.4"/>
    <polygon class="st0" points="56.3 85.7 51.8 86 51.8 74.6 56.3 74.6 56.3 85.7"/>
    <polygon class="st0" points="69.4 100.4 65.4 100.9 65.4 90.2 69.4 89.9 69.4 100.4"/>
    <polygon class="st0" points="63 101.2 58.8 101.7 58.8 90.7 63 90.3 63 101.2"/>
    <polygon class="st0" points="75.4 99.7 71.6 100.1 71.6 89.7 75.4 89.4 75.4 99.7"/>
    <polygon class="st0" points="81.1 99 77.5 99.4 77.5 89.3 81.1 89 81.1 99"/>
    <polygon class="st0" points="56.3 102 51.8 102.6 51.8 91.2 56.3 90.8 56.3 102"/>
    <polygon class="st0" points="69.4 115.8 65.4 116.5 65.4 105.8 69.4 105.2 69.4 115.8"/>
    <polygon class="st0" points="63 117 58.8 117.8 58.8 106.8 63 106.1 63 117"/>
    <polygon class="st0" points="75.4 114.6 71.6 115.3 71.6 104.9 75.4 104.4 75.4 114.6"/>
    <polygon class="st0" points="81.1 113.5 77.5 114.2 77.5 104.1 81.1 103.5 81.1 113.5"/>
    <polygon class="st0" points="56.3 118.3 51.8 119.1 51.8 107.8 56.3 107.1 56.3 118.3"/>
    <polygon class="st1" points="89.6 24.4 44.8 13.4 44.8 16.9 89.6 27.2 89.6 24.4"/>
    <polygon class="st1" points="81.9 11.2 44.8 0 44.8 3.4 81.9 14.1 81.9 11.2"/>
    <polygon class="st1" points="78.5 10.1 44.8 0 44.8 16.9 78.5 24.6 78.5 10.1"/>
    <polygon class="st0" points="69.4 15.6 65.4 14.6 65.4 10.5 69.4 11.6 69.4 15.6"/>
    <polygon class="st0" points="63 14 58.8 12.9 58.8 8.6 63 9.8 63 14"/>
    <polygon class="st0" points="56.3 12.2 51.8 11 51.8 6.7 56.3 7.9 56.3 12.2"/>
  </g>
  <g>
    <polygon class="st1" points="3.3 134.5 44.8 146.9 44.8 16.9 3.3 26.4 3.3 134.5"/>
    <polygon class="st0" points="20.2 39 24.2 38.3 24.2 27.6 20.2 28.4 20.2 39"/>
    <polygon class="st0" points="26.5 38 30.8 37.3 30.8 26.3 26.5 27.1 26.5 38"/>
    <polygon class="st0" points="14.2 39.9 17.9 39.3 17.9 28.9 14.2 29.7 14.2 39.9"/>
    <polygon class="st0" points="8.5 40.8 12.1 40.2 12.1 30.1 8.5 30.8 8.5 40.8"/>
    <polygon class="st0" points="33.2 36.9 37.7 36.2 37.7 24.8 33.2 25.8 33.2 36.9"/>
    <polygon class="st0" points="20.2 54.3 24.2 54 24.2 43.3 20.2 43.8 20.2 54.3"/>
    <polygon class="st0" points="26.5 53.8 30.8 53.4 30.8 42.4 26.5 42.9 26.5 53.8"/>
    <polygon class="st0" points="14.2 54.9 17.9 54.5 17.9 44.1 14.2 44.6 14.2 54.9"/>
    <polygon class="st0" points="8.5 55.3 12.1 55 12.1 44.9 8.5 45.4 8.5 55.3"/>
    <polygon class="st0" points="33.2 53.2 37.7 52.8 37.7 41.4 33.2 42 33.2 53.2"/>
    <polygon class="st0" points="20.2 69.7 24.2 69.6 24.2 58.9 20.2 59.2 20.2 69.7"/>
    <polygon class="st0" points="26.5 69.6 30.8 69.5 30.8 58.5 26.5 58.7 26.5 69.6"/>
    <polygon class="st0" points="14.2 69.8 17.9 69.7 17.9 59.3 14.2 59.5 14.2 69.8"/>
    <polygon class="st0" points="8.5 69.9 12.1 69.8 12.1 59.7 8.5 59.9 8.5 69.9"/>
    <polygon class="st0" points="33.2 69.5 37.7 69.4 37.7 58 33.2 58.3 33.2 69.5"/>
    <polygon class="st0" points="20.2 85 24.2 85.3 24.2 74.5 20.2 74.5 20.2 85"/>
    <polygon class="st0" points="26.5 85.4 30.8 85.6 30.8 74.6 26.5 74.5 26.5 85.4"/>
    <polygon class="st0" points="14.2 84.7 17.9 84.9 17.9 74.5 14.2 74.5 14.2 84.7"/>
    <polygon class="st0" points="8.5 84.4 12.1 84.6 12.1 74.5 8.5 74.5 8.5 84.4"/>
    <polygon class="st0" points="33.2 85.7 37.7 86 37.7 74.6 33.2 74.6 33.2 85.7"/>
    <polygon class="st0" points="20.2 100.4 24.2 100.9 24.2 90.2 20.2 89.9 20.2 100.4"/>
    <polygon class="st0" points="26.5 101.2 30.8 101.7 30.8 90.7 26.5 90.3 26.5 101.2"/>
    <polygon class="st0" points="14.2 99.7 17.9 100.1 17.9 89.7 14.2 89.4 14.2 99.7"/>
    <polygon class="st0" points="8.5 99 12.1 99.4 12.1 89.3 8.5 89 8.5 99"/>
    <polygon class="st0" points="33.2 102 37.7 102.6 37.7 91.2 33.2 90.8 33.2 102"/>
    <polygon class="st0" points="20.2 115.8 24.2 116.5 24.2 105.8 20.2 105.2 20.2 115.8"/>
    <polygon class="st0" points="26.5 117 30.8 117.8 30.8 106.8 26.5 106.1 26.5 117"/>
    <polygon class="st0" points="14.2 114.6 17.9 115.3 17.9 104.9 14.2 104.4 14.2 114.6"/>
    <polygon class="st0" points="8.5 113.5 12.1 114.2 12.1 104.1 8.5 103.5 8.5 113.5"/>
    <polygon class="st0" points="33.2 118.3 37.7 119.1 37.7 107.8 33.2 107.1 33.2 118.3"/>
    <polygon class="st1" points="0 24.4 44.8 13.4 44.8 16.9 0 27.2 0 24.4"/>
    <polygon class="st1" points="7.6 11.2 44.8 0 44.8 3.4 7.6 14.1 7.6 11.2"/>
    <polygon class="st1" points="11.1 10.1 44.8 0 44.8 16.9 11.1 24.6 11.1 10.1"/>
    <polygon class="st0" points="20.2 15.6 24.2 14.6 24.2 10.5 20.2 11.6 20.2 15.6"/>
    <polygon class="st0" points="26.5 14 30.8 12.9 30.8 8.6 26.5 9.8 26.5 14"/>
    <polygon class="st0" points="33.2 12.2 37.7 11 37.7 6.7 33.2 7.9 33.2 12.2"/>
  </g>
</svg>