<?xml version="1.0" encoding="UTF-8"?>
<svg id="Layer_3" xmlns="http://www.w3.org/2000/svg" version="1.1" viewBox="0 0 246.6 276.7">
  <!-- Generator: Adobe Illustrator 29.7.1, SVG Export Plug-In . SVG Version: 2.1.1 Build 8)  -->
  <defs>
    <style>
      .st0 {
        fill: #fff;
      }

      .st1 {
        fill: #ff5151;
      }
    </style>
  </defs>
  <path class="st1" d="M46.3,99.9c0-12.8-10.4-23.2-23.2-23.2S0,87.1,0,99.9s2.5,12.1,6.7,16.3c-.4,1.3-.7,2.7-.7,4.2,0,7.5,6,13.5,13.5,13.5s13.2-5.8,13.5-13c7.9-3.7,13.3-11.7,13.3-21Z"/>
  <path class="st1" d="M200.3,99.9c0-12.8,10.4-23.2,23.2-23.2,12.8,0,23.2,10.4,23.2,23.2,0,6.3-2.5,12.1-6.7,16.3.4,1.3.7,2.7.7,4.2,0,7.5-6,13.5-13.5,13.5-7.3,0-13.2-5.8-13.5-13-7.9-3.7-13.3-11.7-13.3-21Z"/>
  <circle class="st1" cx="123.3" cy="100.1" r="100.1"/>
  <polygon points="223.5 100.1 196.2 154.6 169.3 171.4 166.7 155 123.3 146.5 79.9 155 76.7 175.4 50.4 154.6 23.2 100.1 13.2 172.1 52.6 227.2 123.3 276.7 194 227.2 233.5 172.1 223.5 100.1"/>
  <rect x="73.6" y="75.1" width="17.2" height="27.5" rx="8.6" ry="8.6"/>
  <rect x="155.9" y="75.1" width="17.2" height="27.5" rx="8.6" ry="8.6"/>
  <path class="st1" d="M156,168.8v18l-15.9,12.7-4-3.9v-9.2l-12.8-2.3-12.8,2.3v9.2l-4,3.9-15.9-12.7v-18s5.7,6.8,32.7,6.8,32.7-6.8,32.7-6.8Z"/>
  <rect x="141.1" y="49.2" width="53.9" height="16.3" transform="translate(8.6 -20.7) rotate(7.2)"/>
  <rect x="52.4" y="49.2" width="53.9" height="16.3" transform="translate(165.3 104.3) rotate(172.8)"/>
  <path class="st0" d="M156,168.8s-5.7,6.8-32.7,6.8-32.7-6.8-32.7-6.8c0,0,5.7-6.8,32.7-6.8s32.7,6.8,32.7,6.8Z"/>
  <polygon points="123.3 76.8 96.6 151.7 123.3 146.5 123.3 76.8"/>
</svg>