<?xml version="1.0" encoding="UTF-8"?>
<svg id="Layer_1" xmlns="http://www.w3.org/2000/svg" version="1.1" viewBox="0 0 148.8 148.8">
  <!-- Generator: Adobe Illustrator 29.7.1, SVG Export Plug-In . SVG Version: 2.1.1 Build 8)  -->
  <defs>
    <style>
      .st0 {
        fill: #fff;
      }

      .st1 {
        fill: #5d02f9;
      }
    </style>
  </defs>
  <circle class="st0" cx="74.4" cy="74.4" r="70.3"/>
  <path class="st1" d="M142.9,45.4c-3.7-8.9-9.1-16.8-15.9-23.6-6.8-6.8-14.8-12.2-23.6-15.9-9.2-3.9-18.9-5.9-29-5.9s-19.8,2-29,5.8c-8.9,3.7-16.8,9.1-23.6,15.9-6.8,6.8-12.2,14.8-15.9,23.6C2,54.6,0,64.4,0,74.4s2,19.8,5.8,29c3.7,8.9,9.1,16.8,15.9,23.6,6.8,6.8,14.8,12.2,23.6,15.9,9.2,3.9,18.9,5.9,29,5.9s19.8-2,29-5.8c8.9-3.7,16.8-9.1,23.6-15.9,6.8-6.8,12.2-14.8,15.9-23.6,3.9-9.2,5.8-18.9,5.8-29s-2-19.8-5.8-29ZM63,120.5l-19.3,5.6-20.2-16.8-2.3-23.2,18.3-6.8,22.3,17.8,1.1,23.5ZM67.6,127.8l26.4,4.1,2,5c-6.9,2.4-14.2,3.6-21.6,3.6s-15.5-1.4-22.8-4l-2.3-3.4,18.2-5.3ZM66.7,90.3l-21.9-17.5,4-28.6,26.9-11.2,22.2,18.2-3.5,28.8-27.6,10.3ZM31.3,31.8l4.4-11.1c9.7-7,21.1-11.2,33-12.3l9.7,4.4-5.3,12.2-28.3,11.8-13.6-5ZM135.8,49.8l-8.8-10.7-4.2-9.8c5.6,6,10,12.9,13,20.5ZM135.6,99.6c-6.1,14.7-17.7,27.1-31.9,34.2l-1.9-4.8,17-21.2,16.4-9.1.4.9ZM117.1,99.2l-14.6-17.5,3.6-29.3,16.1-6.2,14.9,18.1-3.6,25.8-16.4,9.1ZM14.7,102.8c-4.2-8.8-6.4-18.6-6.4-28.4s0-2.6.1-3.9l4.5,13.6,1.8,18.7Z"/>
</svg>