<?xml version="1.0" encoding="UTF-8"?>
<svg id="Layer_1" xmlns="http://www.w3.org/2000/svg" version="1.1" xmlns:xlink="http://www.w3.org/1999/xlink" viewBox="0 0 898.6 898.6">
  <!-- Generator: Adobe Illustrator 29.7.1, SVG Export Plug-In . SVG Version: 2.1.1 Build 8)  -->
  <defs>
    <style>
      .st0 {
        fill: url(#radial-gradient);
      }
    </style>
    <radialGradient id="radial-gradient" cx="449.3" cy="449.3" fx="449.3" fy="449.3" r="449.3" gradientUnits="userSpaceOnUse">
      <stop offset="0" stop-color="#231f20"/>
      <stop offset="1" stop-color="#231f20" stop-opacity="0"/>
    </radialGradient>
  </defs>
  <path class="st0" d="M898.6,82.2v-1h-81.2V0h-1v81.2h-80.7V0h-1v81.2h-80.7V0h-1v81.2h-80.7V0h-1v81.2h-80.7V0h-1v81.2h-80.6V0h-1v81.2h-80.7V0h-1v81.2h-80.7V0h-1v81.2h-80.7V0h-1v81.2h-80.7V0h-1v81.2H0v1h81.2v80.7H0v1h81.2v80.7H0v1h81.2v80.7H0v1h81.2v80.7H0v1h81.2v80.6H0v1h81.2v80.7H0v1h81.2v80.7H0v1h81.2v80.7H0v1h81.2v80.7H0v1h81.2v81.2h1v-81.2h80.7v81.2h1v-81.2h80.7v81.2h1v-81.2h80.7v81.2h1v-81.2h80.7v81.2h1v-81.2h80.6v81.2h1v-81.2h80.7v81.2h1v-81.2h80.7v81.2h1v-81.2h80.7v81.2h1v-81.2h80.7v81.2h1v-81.2h81.2v-1h-81.2v-80.7h81.2v-1h-81.2v-80.7h81.2v-1h-81.2v-80.7h81.2v-1h-81.2v-80.7h81.2v-1h-81.2v-80.6h81.2v-1h-81.2v-80.7h81.2v-1h-81.2v-80.7h81.2v-1h-81.2v-80.7h81.2v-1h-81.2v-80.7h81.2ZM734.7,82.2v80.7h-80.7v-80.7h80.7ZM409,408v-80.7h80.6v80.7h-80.6ZM489.6,409v80.6h-80.6v-80.6h80.6ZM408,408h-80.7v-80.7h80.7v80.7ZM408,409v80.6h-80.7v-80.6h80.7ZM408,490.6v80.7h-80.7v-80.7h80.7ZM409,490.6h80.6v80.7h-80.6v-80.7ZM490.6,490.6h80.7v80.7h-80.7v-80.7ZM490.6,489.6v-80.6h80.7v80.6h-80.7ZM490.6,408v-80.7h80.7v80.7h-80.7ZM490.6,326.3v-80.7h80.7v80.7h-80.7ZM489.6,326.3h-80.6v-80.7h80.6v80.7ZM408,326.3h-80.7v-80.7h80.7v80.7ZM326.3,326.3h-80.7v-80.7h80.7v80.7ZM326.3,327.3v80.7h-80.7v-80.7h80.7ZM326.3,409v80.6h-80.7v-80.6h80.7ZM326.3,490.6v80.7h-80.7v-80.7h80.7ZM326.3,572.3v80.7h-80.7v-80.7h80.7ZM327.3,572.3h80.7v80.7h-80.7v-80.7ZM409,572.3h80.6v80.7h-80.6v-80.7ZM490.6,572.3h80.7v80.7h-80.7v-80.7ZM572.3,572.3h80.7v80.7h-80.7v-80.7ZM572.3,571.3v-80.7h80.7v80.7h-80.7ZM572.3,489.6v-80.6h80.7v80.6h-80.7ZM572.3,408v-80.7h80.7v80.7h-80.7ZM572.3,326.3v-80.7h80.7v80.7h-80.7ZM572.3,244.6v-80.7h80.7v80.7h-80.7ZM571.3,244.6h-80.7v-80.7h80.7v80.7ZM489.6,244.6h-80.6v-80.7h80.6v80.7ZM408,244.6h-80.7v-80.7h80.7v80.7ZM326.3,244.6h-80.7v-80.7h80.7v80.7ZM244.6,244.6h-80.7v-80.7h80.7v80.7ZM244.6,245.6v80.7h-80.7v-80.7h80.7ZM244.6,327.3v80.7h-80.7v-80.7h80.7ZM244.6,409v80.6h-80.7v-80.6h80.7ZM244.6,490.6v80.7h-80.7v-80.7h80.7ZM244.6,572.3v80.7h-80.7v-80.7h80.7ZM244.6,654v80.7h-80.7v-80.7h80.7ZM245.6,654h80.7v80.7h-80.7v-80.7ZM327.3,654h80.7v80.7h-80.7v-80.7ZM409,654h80.6v80.7h-80.6v-80.7ZM490.6,654h80.7v80.7h-80.7v-80.7ZM572.3,654h80.7v80.7h-80.7v-80.7ZM654,654h80.7v80.7h-80.7v-80.7ZM654,653v-80.7h80.7v80.7h-80.7ZM654,571.3v-80.7h80.7v80.7h-80.7ZM654,489.6v-80.6h80.7v80.6h-80.7ZM654,408v-80.7h80.7v80.7h-80.7ZM654,326.3v-80.7h80.7v80.7h-80.7ZM654,244.6v-80.7h80.7v80.7h-80.7ZM653,82.2v80.7h-80.7v-80.7h80.7ZM571.3,82.2v80.7h-80.7v-80.7h80.7ZM489.6,82.2v80.7h-80.6v-80.7h80.6ZM408,82.2v80.7h-80.7v-80.7h80.7ZM326.3,82.2v80.7h-80.7v-80.7h80.7ZM244.6,82.2v80.7h-80.7v-80.7h80.7ZM82.2,82.2h80.7v80.7h-80.7v-80.7ZM82.2,163.9h80.7v80.7h-80.7v-80.7ZM82.2,245.6h80.7v80.7h-80.7v-80.7ZM82.2,327.3h80.7v80.7h-80.7v-80.7ZM82.2,409h80.7v80.6h-80.7v-80.6ZM82.2,490.6h80.7v80.7h-80.7v-80.7ZM82.2,572.3h80.7v80.7h-80.7v-80.7ZM82.2,654h80.7v80.7h-80.7v-80.7ZM82.2,816.4v-80.7h80.7v80.7h-80.7ZM163.9,816.4v-80.7h80.7v80.7h-80.7ZM245.6,816.4v-80.7h80.7v80.7h-80.7ZM327.3,816.4v-80.7h80.7v80.7h-80.7ZM409,816.4v-80.7h80.6v80.7h-80.6ZM490.6,816.4v-80.7h80.7v80.7h-80.7ZM572.3,816.4v-80.7h80.7v80.7h-80.7ZM654,816.4v-80.7h80.7v80.7h-80.7ZM816.4,816.4h-80.7v-80.7h80.7v80.7ZM816.4,734.7h-80.7v-80.7h80.7v80.7ZM816.4,653h-80.7v-80.7h80.7v80.7ZM816.4,571.3h-80.7v-80.7h80.7v80.7ZM816.4,489.6h-80.7v-80.6h80.7v80.6ZM816.4,408h-80.7v-80.7h80.7v80.7ZM816.4,326.3h-80.7v-80.7h80.7v80.7ZM816.4,244.6h-80.7v-80.7h80.7v80.7ZM816.4,162.9h-80.7v-80.7h80.7v80.7Z"/>
</svg>