<?xml version="1.0" encoding="UTF-8"?>
<svg id="Layer_1" xmlns="http://www.w3.org/2000/svg" version="1.1" viewBox="0 0 898.6 898.6">
  <!-- Generator: Adobe Illustrator 29.7.1, SVG Export Plug-In . SVG Version: 2.1.1 Build 8)  -->
  <defs>
    <style>
      .st0 {
        fill: none;
        stroke: #231f20;
        stroke-miterlimit: 10;
      }
    </style>
  </defs>
  <line class="st0" x1="81.7" x2="81.7" y2="898.6"/>
  <line class="st0" x1="163.4" x2="163.4" y2="898.6"/>
  <line class="st0" x1="245.1" x2="245.1" y2="898.6"/>
  <line class="st0" x1="326.8" x2="326.8" y2="898.6"/>
  <line class="st0" x1="408.5" x2="408.5" y2="898.6"/>
  <line class="st0" x1="490.1" x2="490.1" y2="898.6"/>
  <line class="st0" x1="571.8" x2="571.8" y2="898.6"/>
  <line class="st0" x1="653.5" x2="653.5" y2="898.6"/>
  <line class="st0" x1="735.2" x2="735.2" y2="898.6"/>
  <line class="st0" x1="816.9" x2="816.9" y2="898.6"/>
  <line class="st0" x1="81.7" x2="81.7" y2="898.6"/>
  <line class="st0" x1="163.4" x2="163.4" y2="898.6"/>
  <line class="st0" x1="245.1" x2="245.1" y2="898.6"/>
  <line class="st0" x1="326.8" x2="326.8" y2="898.6"/>
  <line class="st0" x1="408.5" x2="408.5" y2="898.6"/>
  <line class="st0" x1="490.1" x2="490.1" y2="898.6"/>
  <line class="st0" x1="571.8" x2="571.8" y2="898.6"/>
  <line class="st0" x1="653.5" x2="653.5" y2="898.6"/>
  <line class="st0" x1="735.2" x2="735.2" y2="898.6"/>
  <line class="st0" x1="816.9" x2="816.9" y2="898.6"/>
  <line class="st0" x1="0" y1="816.9" x2="898.6" y2="816.9"/>
  <line class="st0" x1="0" y1="735.2" x2="898.6" y2="735.2"/>
  <line class="st0" x1="0" y1="653.5" x2="898.6" y2="653.5"/>
  <line class="st0" x1="0" y1="571.8" x2="898.6" y2="571.8"/>
  <line class="st0" x1="0" y1="490.1" x2="898.6" y2="490.1"/>
  <line class="st0" x1="0" y1="408.5" x2="898.6" y2="408.5"/>
  <line class="st0" x1="0" y1="326.8" x2="898.6" y2="326.8"/>
  <line class="st0" x1="0" y1="245.1" x2="898.6" y2="245.1"/>
  <line class="st0" x1="0" y1="163.4" x2="898.6" y2="163.4"/>
  <line class="st0" x1="0" y1="81.7" x2="898.6" y2="81.7"/>
  <line class="st0" x1="0" y1="816.9" x2="898.6" y2="816.9"/>
  <line class="st0" x1="0" y1="735.2" x2="898.6" y2="735.2"/>
  <line class="st0" x1="0" y1="653.5" x2="898.6" y2="653.5"/>
  <line class="st0" x1="0" y1="571.8" x2="898.6" y2="571.8"/>
  <line class="st0" x1="0" y1="490.1" x2="898.6" y2="490.1"/>
  <line class="st0" x1="0" y1="408.5" x2="898.6" y2="408.5"/>
  <line class="st0" x1="0" y1="326.8" x2="898.6" y2="326.8"/>
  <line class="st0" x1="0" y1="245.1" x2="898.6" y2="245.1"/>
  <line class="st0" x1="0" y1="163.4" x2="898.6" y2="163.4"/>
  <line class="st0" x1="0" y1="81.7" x2="898.6" y2="81.7"/>
</svg>